<svg width="238" height="441" viewBox="0 0 238 441" fill="none" xmlns="http://www.w3.org/2000/svg">
<rect width="226" height="379" fill="#B81D23"/>
<path d="M156.8 392.2C147.467 392.2 139.467 389.6 132.8 384.4C126.133 379.2 121.867 372.4 120 364C119.867 363.067 119.667 362.133 119.4 361.2C119.267 360.133 119.133 359.067 119 358C119 356.933 119 356.067 119 355.4V355C119 354.6 119 354.2 119 353.8C119 353.4 119 352.867 119 352.2C119 351.4 119 350.4 119 349.2V339C119 336.733 119 335.333 119 334.8C119 334.133 119 333.667 119 333.4C119 333.133 119 332.6 119 331.8V331.6C119 330.667 119 330.133 119 330C119 329.733 119 329.267 119 328.6C119 327.8 119 326.333 119 324.2V298.2H158C158 301.133 158.6 303.2 159.8 304.4C161 305.467 163.067 306 166 306H183.4C186.867 306 189.333 305.6 190.8 304.8C192.267 303.867 193 302.333 193 300.2C193 298.733 192.333 297.533 191 296.6C189.667 295.533 187 294.6 183 293.8C179.133 293 173.267 292.2 165.4 291.4C153.933 290.2 144.933 288.667 138.4 286.8C132 284.933 127.467 282.467 124.8 279.4C122.133 276.333 120.8 272.467 120.8 267.8C120.8 253.667 131.8 246.6 153.8 246.6H196C205.333 246.6 212.667 248.867 218 253.4C223.467 257.8 226.2 263.867 226.2 271.6H191.4C191.4 268.667 190.2 266.333 187.8 264.6C185.533 262.733 182.267 261.8 178 261.8H168.8C165.067 261.8 162.267 262.4 160.4 263.6C158.533 264.8 157.6 266.2 157.6 267.8C157.6 269.533 158.333 271 159.8 272.2C161.267 273.4 164.067 274.4 168.2 275.2C172.333 276 178.333 276.8 186.2 277.6C197.267 278.533 206.133 280.4 212.8 283.2C219.467 286 224.333 290.067 227.4 295.4C230.467 300.733 232 307.733 232 316.4V324.2C232 326.333 232 327.8 232 328.6C232 329.267 232 329.733 232 330C232 330.133 232 330.667 232 331.6V331.8C232 332.6 232 333.133 232 333.4C232 333.667 232 334.133 232 334.8C232 335.333 232 336.733 232 339V349.2C232 350.4 232 351.4 232 352.2C232 352.867 232 353.4 232 353.8C232 354.2 232 354.6 232 355V355.4C232 356.067 231.933 356.933 231.8 358C231.8 359.067 231.733 360.133 231.6 361.2C231.467 362.133 231.333 363.067 231.2 364C230.267 369.333 228 374.133 224.4 378.4C220.933 382.667 216.533 386.067 211.2 388.6C206 391 200.333 392.2 194.2 392.2H156.8Z" fill="#F4F4F4"/>
</svg>
