<svg width="525" height="107" viewBox="0 0 525 107" fill="none" xmlns="http://www.w3.org/2000/svg">
<path d="M17.4 39.6C17.4 42 18 44.1333 19.2 46C20.4667 47.8667 22 49.5 23.8 50.9C25.6 52.3 28.0333 54 31.1 56C34.4333 58.1333 37.1 60 39.1 61.6C41.1 63.2 42.8 65.1667 44.2 67.5C45.6 69.7667 46.3 72.4 46.3 75.4C46.3 78.8667 45.3667 81.9667 43.5 84.7C41.6333 87.3667 39.0333 89.4667 35.7 91C32.4333 92.4667 28.7667 93.2 24.7 93.2C21.7667 93.2 18.6333 92.8 15.3 92C12.0333 91.1333 9.83333 90.2 8.7 89.2C8.36667 88.9333 8.1 88.7 7.9 88.5C7.76667 88.2333 7.7 87.8333 7.7 87.3L7.4 71.4V71.3C7.4 71.0333 7.56667 70.9 7.9 70.9C8.23333 70.8333 8.43333 70.9333 8.5 71.2C10.5 75.2667 12.2333 78.5667 13.7 81.1C15.2333 83.6333 17.1333 85.8667 19.4 87.8C21.7333 89.7333 24.3667 90.7 27.3 90.7C29.9667 90.7 32.1667 90 33.9 88.6C35.6333 87.1333 36.5 84.6667 36.5 81.2C36.5 78.2667 35.8333 75.7 34.5 73.5C33.2333 71.3 31.6667 69.4333 29.8 67.9C27.9333 66.3667 25.3667 64.5333 22.1 62.4C18.9 60.3333 16.4 58.5667 14.6 57.1C12.8667 55.6333 11.3667 53.8667 10.1 51.8C8.83333 49.7333 8.2 47.3 8.2 44.5C8.2 40.9667 9.2 38 11.2 35.6C13.2667 33.1333 15.9 31.3333 19.1 30.2C22.3 29 25.6667 28.4 29.2 28.4C31.5333 28.4 33.9 28.6333 36.3 29.1C38.7 29.5 40.6333 30 42.1 30.6C42.7 30.8667 43.1 31.1667 43.3 31.5C43.5 31.7667 43.6 32.1333 43.6 32.6V47.3C43.6 47.5 43.4333 47.6667 43.1 47.8C42.7667 47.8667 42.5667 47.8 42.5 47.6L41.7 45.7C40.0333 41.5 38.0667 37.9333 35.8 35C33.6 32.0667 30.5 30.6 26.5 30.6C23.8333 30.6 21.6333 31.3667 19.9 32.9C18.2333 34.4333 17.4 36.6667 17.4 39.6ZM70.0648 66.3H98.8648L99.5648 69.1H68.5648L70.0648 66.3ZM123.165 90.8C123.498 90.8 123.665 91 123.665 91.4C123.665 91.8 123.498 92 123.165 92C121.832 92 119.765 91.9333 116.965 91.8C114.032 91.6667 111.932 91.6 110.665 91.6C108.998 91.6 106.965 91.6667 104.565 91.8C102.298 91.9333 100.498 92 99.1648 92C98.8982 92 98.7648 91.8 98.7648 91.4C98.7648 91 98.8982 90.8 99.1648 90.8C100.898 90.8 102.132 90.6333 102.865 90.3C103.665 89.9 104.065 89.2333 104.065 88.3C104.065 87.1667 103.398 85.2667 102.065 82.6L81.7648 42.5L86.6648 33.9L66.7648 77.8C65.8982 79.7333 65.4648 81.5333 65.4648 83.2C65.4648 85.6 66.2982 87.4667 67.9648 88.8C69.6982 90.1333 71.9982 90.8 74.8648 90.8C75.1982 90.8 75.3648 91 75.3648 91.4C75.3648 91.8 75.1982 92 74.8648 92C73.6648 92 71.9315 91.9333 69.6648 91.8C67.1315 91.6667 64.9315 91.6 63.0648 91.6C61.2648 91.6 59.0982 91.6667 56.5648 91.8C54.2982 91.9333 52.4648 92 51.0648 92C50.7982 92 50.6648 91.8 50.6648 91.4C50.6648 91 50.7982 90.8 51.0648 90.8C52.9315 90.8 54.4982 90.4333 55.7648 89.7C57.0315 88.9 58.2982 87.5333 59.5648 85.6C60.8315 83.6 62.3315 80.6667 64.0648 76.8L85.7648 29.1C85.8982 28.9 86.1982 28.8 86.6648 28.8C87.1982 28.8 87.4982 28.9 87.5648 29.1L112.565 78.3C114.898 83.0333 116.832 86.3 118.365 88.1C119.898 89.9 121.498 90.8 123.165 90.8ZM144.647 83.5C144.647 85.6333 144.88 87.2 145.347 88.2C145.814 89.1333 146.68 89.8 147.947 90.2C149.28 90.6 151.38 90.8 154.247 90.8C154.447 90.8 154.547 91 154.547 91.4C154.547 91.8 154.447 92 154.247 92C151.514 92 149.38 91.9667 147.847 91.9L139.147 91.8L131.847 91.9C130.514 91.9667 128.714 92 126.447 92C126.247 92 126.147 91.8 126.147 91.4C126.147 91 126.247 90.8 126.447 90.8C128.58 90.8 130.114 90.6333 131.047 90.3C132.047 89.9667 132.714 89.3333 133.047 88.4C133.38 87.4 133.547 85.9 133.547 83.9V37.6C133.547 35.6 133.38 34.1333 133.047 33.2C132.714 32.2667 132.047 31.6333 131.047 31.3C130.047 30.9 128.514 30.7 126.447 30.7C126.247 30.7 126.147 30.5 126.147 30.1C126.147 29.7 126.247 29.5 126.447 29.5L131.747 29.6C134.814 29.7333 137.247 29.8 139.047 29.8C140.647 29.8 142.547 29.7 144.747 29.5C145.614 29.4333 146.714 29.3667 148.047 29.3C149.38 29.2333 150.914 29.2 152.647 29.2C159.447 29.2 164.814 30.6333 168.747 33.5C172.68 36.3 174.647 40.6667 174.647 46.6C174.647 50.7333 173.58 54.2333 171.447 57.1C169.314 59.9667 166.547 62.1333 163.147 63.6C159.814 65.0667 156.38 65.8 152.847 65.8C151.047 65.8 149.48 65.6333 148.147 65.3C148.014 65.3 147.947 65.1333 147.947 64.8C147.947 64.6 147.98 64.4 148.047 64.2C148.18 64 148.314 63.9333 148.447 64C149.447 64.2667 150.58 64.4 151.847 64.4C154.914 64.4 157.447 62.9667 159.447 60.1C161.514 57.2333 162.547 53.1667 162.547 47.9C162.547 42.6333 161.414 38.5667 159.147 35.7C156.947 32.8333 153.714 31.4 149.447 31.4C147.58 31.4 146.314 31.8333 145.647 32.7C144.98 33.5667 144.647 35.2667 144.647 37.8V83.5ZM232.62 37.8C232.62 35.8 232.42 34.3333 232.02 33.4C231.62 32.4 230.854 31.7 229.72 31.3C228.587 30.9 226.787 30.7 224.32 30.7C224.12 30.7 224.02 30.5 224.02 30.1C224.02 29.7 224.12 29.5 224.32 29.5L229.22 29.6C232.554 29.7333 235.554 29.8 238.22 29.8C240.02 29.8 242.587 29.7333 245.92 29.6L251.52 29.5C251.72 29.5 251.82 29.7 251.82 30.1C251.82 30.5 251.72 30.7 251.52 30.7C249.254 30.7 247.554 30.9 246.42 31.3C245.354 31.6333 244.62 32.2667 244.22 33.2C243.887 34.1333 243.72 35.6 243.72 37.6V83.9C243.72 85.9 243.887 87.4 244.22 88.4C244.62 89.3333 245.354 89.9667 246.42 90.3C247.487 90.6333 249.187 90.8 251.52 90.8C251.72 90.8 251.82 91 251.82 91.4C251.82 91.8 251.72 92 251.52 92C249.187 92 247.32 91.9667 245.92 91.9L238.22 91.8L229.22 91.9C228.02 91.9667 226.387 92 224.32 92C224.12 92 224.02 91.8 224.02 91.4C224.02 91 224.12 90.8 224.32 90.8C226.787 90.8 228.587 90.6333 229.72 90.3C230.854 89.9667 231.62 89.3333 232.02 88.4C232.42 87.4667 232.62 85.9667 232.62 83.9V37.8ZM194.42 58.1H237.72V60.9H194.42V58.1ZM189.22 37.6C189.22 35.6 189.02 34.1333 188.62 33.2C188.22 32.2667 187.487 31.6333 186.42 31.3C185.42 30.9 183.787 30.7 181.52 30.7C181.32 30.7 181.22 30.5 181.22 30.1C181.22 29.7 181.32 29.5 181.52 29.5L186.92 29.6C189.987 29.7333 192.454 29.8 194.32 29.8C196.854 29.8 199.787 29.7333 203.12 29.6L208.62 29.5C208.754 29.5 208.82 29.7 208.82 30.1C208.82 30.5 208.754 30.7 208.62 30.7C206.22 30.7 204.454 30.9 203.32 31.3C202.187 31.7 201.387 32.4 200.92 33.4C200.52 34.3333 200.32 35.8 200.32 37.8V83.9C200.32 85.9 200.52 87.4 200.92 88.4C201.32 89.3333 202.087 89.9667 203.22 90.3C204.354 90.6333 206.154 90.8 208.62 90.8C208.754 90.8 208.82 91 208.82 91.4C208.82 91.8 208.754 92 208.62 92C206.287 92 204.42 91.9667 203.02 91.9L194.32 91.8L186.82 91.9C185.487 91.9667 183.654 92 181.32 92C181.187 92 181.12 91.8 181.12 91.4C181.12 91 181.187 90.8 181.32 90.8C183.654 90.8 185.354 90.6333 186.42 90.3C187.487 89.9667 188.22 89.3333 188.62 88.4C189.02 87.4 189.22 85.9 189.22 83.9V37.6ZM277.388 83.9C277.388 85.9667 277.554 87.4667 277.888 88.4C278.221 89.3333 278.854 89.9667 279.788 90.3C280.788 90.6333 282.354 90.8 284.488 90.8C284.688 90.8 284.788 91 284.788 91.4C284.788 91.8 284.688 92 284.488 92C282.288 92 280.554 91.9667 279.288 91.9L271.688 91.8L264.288 91.9C262.954 91.9667 261.154 92 258.888 92C258.754 92 258.688 91.8 258.688 91.4C258.688 91 258.754 90.8 258.888 90.8C261.021 90.8 262.588 90.6333 263.588 90.3C264.588 89.9667 265.254 89.3333 265.588 88.4C265.988 87.4 266.188 85.9 266.188 83.9V37.6C266.188 35.6 265.988 34.1333 265.588 33.2C265.254 32.2667 264.588 31.6333 263.588 31.3C262.588 30.9 261.021 30.7 258.888 30.7C258.754 30.7 258.688 30.5 258.688 30.1C258.688 29.7 258.754 29.5 258.888 29.5L264.288 29.6C267.354 29.7333 269.821 29.8 271.688 29.8C273.754 29.8 276.321 29.7333 279.388 29.6L284.488 29.5C284.688 29.5 284.788 29.7 284.788 30.1C284.788 30.5 284.688 30.7 284.488 30.7C282.421 30.7 280.888 30.9 279.888 31.3C278.888 31.7 278.221 32.4 277.888 33.4C277.554 34.3333 277.388 35.8 277.388 37.8V83.9ZM301.567 31.8L304.567 32V79.3C304.567 82.8333 305.301 85.6333 306.767 87.7C308.234 89.7667 310.267 90.8 312.867 90.8C313.001 90.8 313.067 91 313.067 91.4C313.067 91.8 313.001 92 312.867 92C311.001 92 309.567 91.9667 308.567 91.9L303.167 91.8L296.967 91.9C295.834 91.9667 294.201 92 292.067 92C291.867 92 291.767 91.8 291.767 91.4C291.767 91 291.867 90.8 292.067 90.8C295.001 90.8 297.301 89.7667 298.967 87.7C300.701 85.6333 301.567 82.8333 301.567 79.3V31.8ZM352.567 93.5C352.567 93.7 352.401 93.8333 352.067 93.9C351.801 93.9667 351.601 93.9333 351.467 93.8L302.167 37.7C299.834 35.0333 297.834 33.2 296.167 32.2C294.501 31.2 292.801 30.7 291.067 30.7C290.934 30.7 290.867 30.5 290.867 30.1C290.867 29.7 290.934 29.5 291.067 29.5L295.267 29.6C296.134 29.6667 297.401 29.7 299.067 29.7L306.667 29.6C307.601 29.5333 308.734 29.5 310.067 29.5C310.601 29.5 311.001 29.6333 311.267 29.9C311.534 30.1667 312.001 30.7333 312.667 31.6C313.801 33.1333 314.601 34.1667 315.067 34.7L351.767 77L352.567 93.5ZM352.567 93.5L349.667 90.5V42.3C349.667 38.7 348.934 35.8667 347.467 33.8C346.001 31.7333 343.967 30.7 341.367 30.7C341.234 30.7 341.167 30.5 341.167 30.1C341.167 29.7 341.234 29.5 341.367 29.5L345.667 29.6C347.801 29.7333 349.601 29.8 351.067 29.8C352.401 29.8 354.267 29.7333 356.667 29.6L361.167 29.5C361.301 29.5 361.367 29.7 361.367 30.1C361.367 30.5 361.301 30.7 361.167 30.7C358.501 30.7 356.401 31.7667 354.867 33.9C353.334 35.9667 352.567 38.7667 352.567 42.3V93.5ZM399.002 93.2C392.802 93.2 387.269 91.7667 382.402 88.9C377.602 85.9667 373.869 82.0333 371.202 77.1C368.602 72.1 367.302 66.6667 367.302 60.8C367.302 53.9333 369.036 48.0667 372.502 43.2C375.969 38.2667 380.402 34.5667 385.802 32.1C391.269 29.6333 396.836 28.4 402.502 28.4C408.836 28.4 414.402 29.9 419.202 32.9C424.002 35.8333 427.669 39.7333 430.202 44.6C432.802 49.4667 434.102 54.6333 434.102 60.1C434.102 66.1667 432.502 71.7333 429.302 76.8C426.102 81.8667 421.802 85.8667 416.402 88.8C411.069 91.7333 405.269 93.2 399.002 93.2ZM402.302 90.7C406.036 90.7 409.369 89.6333 412.302 87.5C415.302 85.3 417.636 82.1333 419.302 78C420.969 73.8 421.802 68.8 421.802 63C421.802 56.8667 420.869 51.4 419.002 46.6C417.136 41.7333 414.436 37.9333 410.902 35.2C407.369 32.4667 403.236 31.1 398.502 31.1C392.436 31.1 387.769 33.4 384.502 38C381.236 42.5333 379.602 48.9 379.602 57.1C379.602 63.5667 380.569 69.3667 382.502 74.5C384.502 79.5667 387.202 83.5333 390.602 86.4C394.069 89.2667 397.969 90.7 402.302 90.7ZM477.021 92C476.821 92 476.721 91.8 476.721 91.4C476.721 91 476.821 90.8 477.021 90.8C479.221 90.8 480.321 90.2333 480.321 89.1C480.321 88.5 480.021 87.7667 479.421 86.9L448.321 38.7C446.521 35.8333 444.788 33.8 443.121 32.6C441.454 31.3333 439.688 30.7 437.821 30.7C437.621 30.7 437.521 30.5 437.521 30.1C437.521 29.7 437.621 29.5 437.821 29.5L442.121 29.6C443.988 29.7333 445.388 29.8 446.321 29.8C448.654 29.8 451.554 29.7333 455.021 29.6L460.721 29.5C460.854 29.5 460.921 29.7 460.921 30.1C460.921 30.5 460.854 30.7 460.721 30.7C458.454 30.7 457.321 31.2667 457.321 32.4C457.321 32.9333 457.621 33.7 458.221 34.7L489.921 83.7C491.588 86.1667 493.288 87.9667 495.021 89.1C496.754 90.2333 498.754 90.8 501.021 90.8C501.221 90.8 501.321 91 501.321 91.4C501.321 91.8 501.221 92 501.021 92C499.088 92 497.588 91.9667 496.521 91.9L490.521 91.8L482.321 91.9C481.054 91.9667 479.288 92 477.021 92ZM437.121 92C436.921 92 436.821 91.8 436.821 91.4C436.821 91 436.921 90.8 437.121 90.8C439.188 90.8 441.721 89.7 444.721 87.5C447.721 85.3 450.854 81.9333 454.121 77.4L466.421 60.8L468.221 62.2L457.121 78C454.521 81.6667 453.221 84.6333 453.221 86.9C453.221 89.5 454.954 90.8 458.421 90.8C458.554 90.8 458.621 91 458.621 91.4C458.621 91.8 458.554 92 458.421 92C456.221 92 454.554 91.9667 453.421 91.9L446.021 91.8L441.321 91.9C440.454 91.9667 439.054 92 437.121 92ZM468.321 59.4L479.421 43.6C482.021 39.8667 483.321 36.8667 483.321 34.6C483.321 32 481.588 30.7 478.121 30.7C477.988 30.7 477.921 30.5 477.921 30.1C477.921 29.7 477.988 29.5 478.121 29.5L483.121 29.6C485.788 29.7333 488.254 29.8 490.521 29.8C491.921 29.8 493.488 29.7333 495.221 29.6L499.421 29.5C499.621 29.5 499.721 29.7 499.721 30.1C499.721 30.5 499.621 30.7 499.421 30.7C497.288 30.7 494.721 31.8333 491.721 34.1C488.788 36.3 485.654 39.6667 482.321 44.2L470.121 60.8L468.321 59.4Z" fill="#2A2A2A"/>
<rect x="507" y="89" width="18" height="18" fill="#B81D23"/>
</svg>
